<svg width="10" height="8" viewBox="0 0 10 8" fill="none" xmlns="http://www.w3.org/2000/svg">
<path d="M3.15108 7.41484C3.22007 7.51113 3.31101 7.58959 3.41638 7.64372C3.52174 7.69784 3.63849 7.72608 3.75694 7.72608C3.87539 7.72608 3.99214 7.69784 4.0975 7.64372C4.20286 7.58959 4.29381 7.51113 4.3628 7.41484L9.29874 0.571094C9.3878 0.446875 9.29874 0.273438 9.14639 0.273438H8.04717C7.80811 0.273438 7.58077 0.388281 7.44014 0.585156L3.75811 5.69453L2.08936 3.37891C1.94873 3.18438 1.72373 3.06719 1.48233 3.06719H0.383109C0.230766 3.06719 0.141703 3.24062 0.230766 3.36484L3.15108 7.41484Z" fill="#3588E4"/>
</svg>
