<svg width="120" height="118" viewBox="0 0 120 118" fill="none" xmlns="http://www.w3.org/2000/svg">
<path d="M119.5 59C119.5 91.3008 92.8689 117.5 60 117.5C27.1311 117.5 0.5 91.3008 0.5 59C0.5 26.6992 27.1311 0.5 60 0.5C92.8689 0.5 119.5 26.6992 119.5 59Z" stroke="white" stroke-opacity="0.2"/>
<path d="M106.375 59C106.375 84.1728 85.6202 104.594 60 104.594C34.3798 104.594 13.625 84.1728 13.625 59C13.625 33.8272 34.3798 13.4062 60 13.4062C85.6202 13.4062 106.375 33.8272 106.375 59Z" stroke="white" stroke-opacity="0.3"/>
<ellipse cx="60" cy="59" rx="33.75" ry="33.1875" fill="#3588E4"/>
<path d="M75 58.0781L53.9063 70.0536L53.9063 46.1026L75 58.0781Z" fill="white"/>
</svg>
