<svg width="32" height="31" viewBox="0 0 32 31" fill="none" xmlns="http://www.w3.org/2000/svg">
<path d="M31.9039 27.9746L21.5159 18.1901C23.1279 16.2271 23.9999 13.8272 23.9999 11.3029C23.9999 8.28123 22.7479 5.44798 20.4839 3.31174C18.2199 1.1755 15.2039 0 11.9999 0C8.79596 0 5.77997 1.17927 3.51598 3.31174C1.24799 5.44421 0 8.28123 0 11.3029C0 14.3207 1.25199 17.1615 3.51598 19.294C5.77997 21.4302 8.79196 22.6057 11.9999 22.6057C14.6799 22.6057 17.2239 21.7844 19.3079 20.2698L29.6959 30.0506C29.7263 30.0793 29.7625 30.102 29.8023 30.1176C29.8421 30.1331 29.8848 30.1411 29.9279 30.1411C29.971 30.1411 30.0136 30.1331 30.0534 30.1176C30.0932 30.102 30.1294 30.0793 30.1599 30.0506L31.9039 28.4116C31.9343 28.3829 31.9585 28.3489 31.975 28.3114C31.9915 28.2739 32 28.2337 32 28.1931C32 28.1525 31.9915 28.1123 31.975 28.0749C31.9585 28.0374 31.9343 28.0033 31.9039 27.9746ZM18.3359 17.2708C16.6399 18.8645 14.3919 19.7423 11.9999 19.7423C9.60796 19.7423 7.35997 18.8645 5.66398 17.2708C3.97198 15.6733 3.03999 13.5559 3.03999 11.3029C3.03999 9.04983 3.97198 6.92866 5.66398 5.33495C7.35997 3.74125 9.60796 2.86339 11.9999 2.86339C14.3919 2.86339 16.6439 3.73748 18.3359 5.33495C20.0279 6.93243 20.9599 9.04983 20.9599 11.3029C20.9599 13.5559 20.0279 15.6771 18.3359 17.2708Z" fill="white"/>
</svg>
