<svg width="20" height="58" viewBox="0 0 20 58" fill="none" xmlns="http://www.w3.org/2000/svg">
<path d="M19.4831 26.7155L0.542017 0.128954C0.492523 0.0589285 0.433042 0.015411 0.370407 0.00339831C0.307771 -0.00861438 0.24452 0.0113651 0.187918 0.0610425C0.131316 0.11072 0.0836588 0.188081 0.050419 0.28424C0.0171792 0.380399 -0.000295008 0.491456 3.76815e-06 0.604658V6.44147C3.76815e-06 6.81146 0.0966421 7.16635 0.256305 7.39288L15.3823 28.6183L0.256305 49.8438C0.0924404 50.0703 3.76815e-06 50.4252 3.76815e-06 50.7952V56.632C3.76815e-06 57.1379 0.323531 57.4173 0.542017 57.1077L19.4831 30.5212C19.6441 30.2955 19.7743 30.0068 19.8639 29.6771C19.9534 29.3473 20 28.9853 20 28.6183C20 28.2514 19.9534 27.8893 19.8639 27.5596C19.7743 27.2299 19.6441 26.9412 19.4831 26.7155Z" fill="#3588E4"/>
</svg>
