<svg width="55" height="55" viewBox="0 0 55 55" fill="none" xmlns="http://www.w3.org/2000/svg">
<g clip-path="url(#clip0)">
<path d="M1.14551 18.3334C2.97884 12.375 6.49273 13.559 8.02051 14.8959V19.4793H22.3434C20.0518 14.4377 24.0622 10.8856 26.3538 9.73975L25.208 8.021V4.01058L27.4997 1.146L29.7913 2.86475V7.44808L29.2184 8.021L28.6455 9.73975L30.3643 10.8856L33.2288 14.896L32.6559 19.4793H46.9788V14.8959C51.5622 12.1459 53.4719 15.6598 53.8538 17.7606V46.9793C54.3122 52.4793 51.3712 53.8543 49.8434 53.8543H8.59342C3.55176 54.771 1.52745 52.3265 1.14551 50.9897V18.3334Z" fill="white"/>
<path d="M1.14583 50.4165C0.515625 50.4165 0 49.9009 0 49.2707V18.3332C0 15.1707 2.56667 12.604 5.72917 12.604C7.975 12.604 8.78854 13.7613 9.075 14.4603C9.13229 14.5978 9.16667 14.7467 9.16667 14.8957V45.8332C9.16667 46.3488 8.82292 46.8071 8.31875 46.9332C7.82604 47.0707 7.2875 46.853 7.03542 46.4061C6.79479 46.0165 6.21042 45.8332 5.72917 45.8332C3.83854 45.8332 2.29167 47.3801 2.29167 49.2707C2.29167 49.9009 1.77604 50.4165 1.14583 50.4165ZM5.72917 14.8957C3.83854 14.8957 2.29167 16.4425 2.29167 18.3332V44.6873C3.25417 43.9655 4.44583 43.5415 5.72917 43.5415C6.08438 43.5415 6.48542 43.5873 6.875 43.7019V15.205C6.63438 14.9415 6.07292 14.8957 5.72917 14.8957Z" fill="#505050"/>
<path d="M19.4788 18.333H8.02051V20.6247H19.4788V18.333Z" fill="#505050"/>
<path d="M46.9789 18.333H35.5205V20.6247H46.9789V18.333Z" fill="#505050"/>
<path d="M49.2708 54.9997H5.72917C2.56667 54.9997 0 52.433 0 49.2705H2.29167C2.29167 51.1611 3.83854 52.708 5.72917 52.708H49.2708C51.1615 52.708 52.7083 51.1611 52.7083 49.2705H55C55 52.433 52.4333 54.9997 49.2708 54.9997Z" fill="#505050"/>
<path d="M53.8538 50.4165C53.2236 50.4165 52.708 49.9009 52.708 49.2707C52.708 47.3801 51.1611 45.8332 49.2705 45.8332C48.7893 45.8332 48.2049 46.0165 47.9643 46.4176C47.7007 46.8644 47.1736 47.0821 46.6809 46.9446C46.1768 46.8071 45.833 46.3488 45.833 45.8332V14.8957C45.833 14.7467 45.8674 14.5978 45.9247 14.4603C46.2111 13.7613 47.0247 12.604 49.2705 12.604C52.433 12.604 54.9997 15.1707 54.9997 18.3332V49.2707C54.9997 49.9009 54.4841 50.4165 53.8538 50.4165ZM49.2705 43.5415C50.5653 43.5415 51.7455 43.9655 52.708 44.6873V18.3332C52.708 16.4425 51.1611 14.8957 49.2705 14.8957C48.9268 14.8957 48.3653 14.9415 48.1247 15.205V43.7019C48.5143 43.5873 48.9153 43.5415 49.2705 43.5415Z" fill="#505050"/>
<path d="M27.5 11.4578C27.2021 11.4578 26.9156 11.3432 26.6865 11.1255L24.3948 8.83382C24.1885 8.61611 24.0625 8.32966 24.0625 8.02028V3.43695C24.0625 3.12757 24.1885 2.84111 24.3948 2.6234L26.6865 0.331738C27.1333 -0.115137 27.8552 -0.115137 28.3021 0.331738L30.5938 2.6234C30.8115 2.84111 30.9375 3.12757 30.9375 3.43695V8.02028C30.9375 8.32966 30.8115 8.61611 30.6052 8.83382L28.3135 11.1255C28.0844 11.3432 27.7979 11.4578 27.5 11.4578ZM26.3542 7.55049L27.5 8.69632L28.6458 7.55049V3.90674L27.5 2.76091L26.3542 3.90674V7.55049Z" fill="#3588E4"/>
<path d="M23.0035 20.1842L12.6973 45.397L14.8187 46.2641L25.1249 21.0513L23.0035 20.1842Z" fill="#3588E4"/>
<path d="M32.016 20.2404L29.8623 21.0234L39.0281 46.2326L41.1818 45.4495L32.016 20.2404Z" fill="#3588E4"/>
<path d="M28.6462 28.6455H26.3545V38.958H28.6462V28.6455Z" fill="#3588E4"/>
<path d="M27.5 22.9165C23.7073 22.9165 20.625 19.8342 20.625 16.0415C20.625 12.2488 23.7073 9.1665 27.5 9.1665C31.2927 9.1665 34.375 12.2488 34.375 16.0415C34.375 19.8342 31.2927 22.9165 27.5 22.9165ZM27.5 11.4582C24.9677 11.4582 22.9167 13.5092 22.9167 16.0415C22.9167 18.5738 24.9677 20.6248 27.5 20.6248C30.0323 20.6248 32.0833 18.5738 32.0833 16.0415C32.0833 13.5092 30.0323 11.4582 27.5 11.4582Z" fill="#3588E4"/>
<path d="M27.4999 34.3746C23.0082 34.3746 19.1009 32.4381 15.2051 28.2788L16.878 26.709C20.3155 30.3756 23.6957 32.0715 27.4999 32.0715C31.304 32.0715 34.6842 30.3642 38.1217 26.709L39.7947 28.2788C35.8988 32.4381 31.9915 34.3746 27.4999 34.3746Z" fill="#3588E4"/>
</g>
<defs>
<clipPath id="clip0">
<rect width="55" height="55" fill="white"/>
</clipPath>
</defs>
</svg>
