<svg width="100" height="100" viewBox="0 0 100 100" fill="none" xmlns="http://www.w3.org/2000/svg">
<path d="M50 100C22.45 100 0 77.55 0 50C0 22.45 22.45 0 50 0C77.55 0 100 22.45 100 50C100 77.55 77.55 100 50 100ZM50 10C27.95 10 10 27.95 10 50C10 72.05 27.95 90 50 90C72.05 90 90 72.05 90 50C90 27.95 72.05 10 50 10Z" fill="#535353"/>
<path d="M65.001 74.9994H45.001V44.9995H40.001V34.9995H55.001V64.9994H65.001V74.9994Z" fill="#3588E4"/>
<path d="M49.999 65H34.999V74.9999H49.999V65Z" fill="#3588E4"/>
<path d="M55 20H45V29.9994H55V20Z" fill="#3588E4"/>
</svg>
