<svg width="34" height="45" viewBox="0 0 34 45" fill="none" xmlns="http://www.w3.org/2000/svg">
<path d="M34 45H0V6.59L6.59 0H34V45ZM2 43H32V2H7.41L2 7.41V43Z" fill="white"/>
<path d="M9 9H3V7H7V3H9V9Z" fill="white"/>
<path d="M19.0001 36H15.0001C14.4501 36 14.0001 35.55 14.0001 35V32.48C12.9601 32.11 11.9901 31.56 11.1501 30.84L8.97007 32.1C8.49007 32.38 7.88007 32.21 7.60007 31.73L5.60007 28.27C5.32007 27.79 5.49007 27.18 5.97007 26.9L8.15007 25.64C8.05007 25.09 8.00007 24.54 8.00007 24C8.00007 23.46 8.05007 22.91 8.16007 22.36L5.97007 21.1C5.49007 20.82 5.33007 20.21 5.60007 19.73L7.60007 16.27C7.88007 15.79 8.49007 15.63 8.97007 15.9L11.1501 17.16C11.9901 16.45 12.9501 15.89 14.0001 15.52V13C14.0001 12.45 14.4501 12 15.0001 12H19.0001C19.5501 12 20.0001 12.45 20.0001 13V15.52C21.0401 15.89 22.0101 16.44 22.8501 17.16L25.0301 15.9C25.5101 15.62 26.1201 15.79 26.4001 16.27L28.4001 19.73C28.6801 20.21 28.5101 20.82 28.0301 21.1L25.8501 22.36C25.9501 22.91 26.0001 23.46 26.0001 24C26.0001 24.54 25.9501 25.09 25.8401 25.64L28.0201 26.9C28.5001 27.18 28.6601 27.79 28.3901 28.27L26.3901 31.73C26.1101 32.21 25.5001 32.37 25.0201 32.1L22.8401 30.84C22.0001 31.55 21.0401 32.11 19.9901 32.48V35C20.0001 35.55 19.5501 36 19.0001 36ZM16.0001 34H18.0001V31.74C18.0001 31.28 18.3101 30.89 18.7501 30.77C19.9801 30.45 21.1101 29.81 21.9901 28.9C22.3101 28.58 22.8101 28.51 23.2001 28.73L25.1501 29.86L26.1501 28.13L24.2001 27C23.8101 26.77 23.6101 26.31 23.7401 25.87C23.9101 25.24 24.0001 24.62 24.0001 24C24.0001 23.38 23.9101 22.76 23.7401 22.13C23.6201 21.69 23.8101 21.23 24.2001 21L26.1601 19.87L25.1601 18.14L23.2101 19.27C22.8101 19.5 22.3201 19.43 22.0001 19.1C21.1101 18.2 19.9901 17.55 18.7601 17.23C18.3101 17.12 18.0001 16.72 18.0001 16.26V14H16.0001V16.26C16.0001 16.72 15.6901 17.11 15.2501 17.23C14.0201 17.55 12.8901 18.19 12.0101 19.1C11.6901 19.43 11.1901 19.49 10.8001 19.27L8.85007 18.14L7.85007 19.87L9.80007 21C10.1901 21.23 10.3901 21.69 10.2601 22.13C10.0901 22.76 10.0001 23.38 10.0001 24C10.0001 24.62 10.0901 25.24 10.2601 25.87C10.3801 26.31 10.1901 26.77 9.80007 27L7.84007 28.13L8.84007 29.86L10.7901 28.73C11.1801 28.5 11.6801 28.57 12.0001 28.9C12.8901 29.8 14.0101 30.45 15.2401 30.77C15.6801 30.88 15.9901 31.28 15.9901 31.74V34H16.0001Z" fill="white"/>
<path d="M17 28C14.79 28 13 26.21 13 24C13 21.79 14.79 20 17 20C19.21 20 21 21.79 21 24C21 26.21 19.21 28 17 28ZM17 22C15.9 22 15 22.9 15 24C15 25.1 15.9 26 17 26C18.1 26 19 25.1 19 24C19 22.9 18.1 22 17 22Z" fill="white"/>
</svg>
