<svg width="30" height="39" viewBox="0 0 30 39" fill="none" xmlns="http://www.w3.org/2000/svg">
<path d="M15.1102 39H19.6435C20.8902 39 21.9102 37.8554 21.9102 36.4565V35.6087C21.9102 34.2098 20.8902 33.0652 19.6435 33.0652H15.1102C13.8635 33.0652 12.8435 34.2098 12.8435 35.6087V36.4565C12.8435 37.8554 13.8635 39 15.1102 39ZM19.6435 34.7608C20.059 34.7608 20.399 35.1424 20.399 35.6087V36.4565C20.399 36.9228 20.059 37.3043 19.6435 37.3043H15.1102C14.6946 37.3043 14.3546 36.9228 14.3546 36.4565V35.6087C14.3546 35.1424 14.6946 34.7608 15.1102 34.7608H19.6435Z" fill="#535353"/>
<path d="M4.53376 15.2609H6.04488V12.6326C6.04488 6.60457 11.1298 1.69565 17.3782 1.69565C23.6267 1.69565 28.7115 6.60457 28.7115 12.6326V15.2609H30.2227V12.6326C30.2227 5.67196 24.4578 0 17.3782 0C10.2987 0 4.53376 5.67196 4.53376 12.6326V15.2609Z" fill="#535353"/>
<path d="M13.3969 36.6853L13.8125 35.0575C9.99695 33.8366 7.11828 30.7251 6.29472 26.9353L4.82895 27.3338C5.77339 31.7086 9.06006 35.2949 13.3969 36.6853Z" fill="#535353"/>
<path d="M4.25456 28.5972C4.91189 28.5972 5.56167 28.3089 6.05278 27.7579C6.52878 27.2322 6.80078 26.4946 6.80078 25.74V16.6089C6.80078 15.8459 6.53634 15.1252 6.05278 14.5911C5.22923 13.667 3.95234 13.4889 2.94745 14.1587L1.23234 15.3118C0.469231 15.8289 0.000785828 16.7615 0.000785828 17.762V24.587C0.000785828 25.5874 0.476787 26.52 1.23234 27.0372L2.94745 28.1902C3.35545 28.4615 3.80878 28.5972 4.25456 28.5972ZM4.25456 15.4559C4.51901 15.4559 4.78345 15.5746 4.98745 15.795C5.18389 16.0155 5.28967 16.3037 5.28967 16.6174V25.7485C5.28967 26.0537 5.17634 26.3505 4.98745 26.5709C4.64745 26.9524 4.13367 27.0202 3.72567 26.7489L2.01056 25.5959C1.70078 25.3755 1.5119 24.9939 1.5119 24.587V17.762C1.5119 17.355 1.70078 16.9735 2.01056 16.77L3.72567 15.617C3.89189 15.5068 4.07323 15.4559 4.25456 15.4559Z" fill="#535353"/>
<path d="M29.7462 28.5972C30.192 28.5972 30.6453 28.4616 31.0533 28.1903L32.7684 27.0372C33.524 26.5201 34 25.5874 34 24.587V17.762C34 16.7616 33.524 15.829 32.7684 15.3118L31.0533 14.1587C30.0484 13.4805 28.7716 13.6585 27.948 14.5911C27.4644 15.1337 27.2 15.8459 27.2 16.609V25.7401C27.2 26.4946 27.472 27.2322 27.948 27.7579C28.4391 28.309 29.0889 28.5972 29.7462 28.5972ZM29.7462 15.4559C29.9276 15.4559 30.1164 15.5068 30.2751 15.6255L31.9902 16.7785C32.3 16.982 32.4889 17.3635 32.4889 17.762V24.587C32.4889 24.994 32.3 25.3755 31.9902 25.579L30.2751 26.732C29.8671 27.0033 29.3533 26.9355 29.0133 26.554C28.8244 26.342 28.7111 26.0453 28.7111 25.7401V16.609C28.7111 16.2953 28.8169 16.007 29.0133 15.7866C29.2098 15.5661 29.4742 15.4559 29.7462 15.4559Z" fill="#535353"/>
</svg>
