<svg width="55" height="55" viewBox="0 0 55 55" fill="none" xmlns="http://www.w3.org/2000/svg">
<path d="M2.62005 17.6285C-3.14186 44.7054 15.0605 53.355 24.882 54.2952L24.8809 46.5387H26.1904C36.1428 43.7182 40.8134 37.8421 41.9047 35.2566L45.8332 41.6028L53.0356 29.6156H49.7618C50.2856 19.4618 44.742 11.2823 41.9047 8.46184C21.9999 -7.89713 7.42127 7.75671 2.62005 17.6285Z" fill="white"/>
<path d="M25.2768 55C11.3401 55 0 42.6625 0 27.5C0 12.3375 11.3401 0 25.2768 0C39.2135 0 50.5536 12.3375 50.5536 27.5V28.75H55L45.9578 43.5L36.9156 28.75H41.362V27.5C41.362 17.85 34.1466 10 25.2768 10C16.4069 10 9.19156 17.85 9.19156 27.5C9.19156 37.15 16.4069 45 25.2768 45C29.7807 45 34.1007 42.9 37.1454 39.25L38.8458 40.925C35.3645 45.1 30.4241 47.5 25.2768 47.5C15.1431 47.5 6.89367 38.525 6.89367 27.5C6.89367 16.475 15.1431 7.5 25.2768 7.5C35.4105 7.5 43.6599 16.475 43.6599 27.5V31.25H41.2127L45.9578 39L50.7029 31.25H48.2557V27.5C48.2557 13.7125 37.9497 2.5 25.2768 2.5C12.6039 2.5 2.29789 13.7125 2.29789 27.5C2.29789 41.2875 12.6039 52.5 25.2768 52.5V55Z" fill="#505050"/>
<path d="M31.5386 34.7875L24.1279 29.425V15H26.4258V28.075L32.8025 32.7125L31.5386 34.7875Z" fill="#3588E4"/>
</svg>
