<svg width="80" height="80" viewBox="0 0 80 80" fill="none" xmlns="http://www.w3.org/2000/svg">
<g clip-path="url(#clip0)">
<path d="M9.76797 48.3745C7.7013 43.8808 6.66797 39.0468 6.66797 34.0426C6.66797 15.2681 21.618 0 40.0013 0C58.3846 0 73.3346 15.2681 73.3346 34.0426C73.3346 39.0468 72.3013 43.8638 70.2513 48.3745L67.2346 46.9447C69.068 42.8936 70.0013 38.5532 70.0013 34.0426C70.0013 17.1574 56.5513 3.40426 40.0013 3.40426C23.4513 3.40426 10.0013 17.1574 10.0013 34.0426C10.0013 38.5532 10.9346 42.8936 12.7846 46.9447L9.76797 48.3745Z" fill="#505050"/>
<path d="M13.3327 73.1915H1.66608C1.01608 73.1915 0.432742 72.817 0.149409 72.2043C-0.117258 71.6085 -0.0339244 70.8936 0.382742 70.4L7.83274 61.2766L0.382742 52.1532C-0.0339244 51.6425 -0.117258 50.9447 0.149409 50.3489C0.432742 49.7362 1.01608 49.3617 1.66608 49.3617H19.9994C20.9161 49.3617 21.6661 50.1277 21.6661 51.0638V54.4681H18.3327V52.766H5.23274L11.2827 60.1872C11.7994 60.817 11.7994 61.7362 11.2827 62.366L5.23274 69.7872H13.3327V73.1915Z" fill="#3588E4"/>
<path d="M78.332 73.1915H66.6654V69.7872H74.7654L68.7154 62.366C68.1987 61.7362 68.1987 60.817 68.7154 60.1872L74.7654 52.766H61.6654V54.4681H58.332V51.0638C58.332 50.1277 59.082 49.3617 59.9987 49.3617H78.332C78.982 49.3617 79.5654 49.7362 79.8487 50.3489C80.1154 50.9447 80.032 51.6596 79.6154 52.1532L72.1654 61.2766L79.6154 70.4C80.032 70.9106 80.1154 71.6085 79.8487 72.2043C79.5654 72.817 78.982 73.1915 78.332 73.1915Z" fill="#3588E4"/>
<path d="M63.3333 80H16.6667C15.75 80 15 79.234 15 78.2978V57.8723C15 56.9361 15.75 56.1702 16.6667 56.1702H63.3333C64.25 56.1702 65 56.9361 65 57.8723V78.2978C65 79.234 64.25 80 63.3333 80ZM18.3333 76.5957H61.6667V59.5744H18.3333V76.5957Z" fill="#505050"/>
<path d="M32.815 18.5V43H27.145V23.05H22.245V18.5H32.815ZM47.5711 43.42C45.5411 43.42 43.7327 42.9183 42.1461 41.915C40.5594 40.9117 39.3111 39.465 38.4011 37.575C37.5144 35.6617 37.0711 33.3867 37.0711 30.75C37.0711 28.1133 37.5144 25.85 38.4011 23.96C39.3111 22.0467 40.5594 20.5883 42.1461 19.585C43.7327 18.5817 45.5411 18.08 47.5711 18.08C49.6011 18.08 51.4094 18.5817 52.9961 19.585C54.5827 20.5883 55.8194 22.0467 56.7061 23.96C57.6161 25.85 58.0711 28.1133 58.0711 30.75C58.0711 33.3867 57.6161 35.6617 56.7061 37.575C55.8194 39.465 54.5827 40.9117 52.9961 41.915C51.4094 42.9183 49.6011 43.42 47.5711 43.42ZM47.5711 38.625C49.0644 38.625 50.2311 37.9833 51.0711 36.7C51.9344 35.4167 52.3661 33.4333 52.3661 30.75C52.3661 28.0667 51.9344 26.0833 51.0711 24.8C50.2311 23.5167 49.0644 22.875 47.5711 22.875C46.1011 22.875 44.9344 23.5167 44.0711 24.8C43.2311 26.0833 42.8111 28.0667 42.8111 30.75C42.8111 33.4333 43.2311 35.4167 44.0711 36.7C44.9344 37.9833 46.1011 38.625 47.5711 38.625Z" fill="#3588E4"/>
<path d="M33.638 63.316V73H30.83V65.62H27.77L27.68 67.33C27.632 68.602 27.512 69.658 27.32 70.498C27.128 71.338 26.816 71.998 26.384 72.478C25.952 72.958 25.352 73.198 24.584 73.198C24.176 73.198 23.69 73.126 23.126 72.982L23.27 70.678C23.462 70.702 23.6 70.714 23.684 70.714C24.104 70.714 24.416 70.564 24.62 70.264C24.836 69.952 24.98 69.562 25.052 69.094C25.124 68.614 25.178 67.984 25.214 67.204L25.358 63.316H33.638ZM45.7523 68.194C45.7523 68.23 45.7343 68.482 45.6983 68.95H38.3723C38.5043 69.55 38.8163 70.024 39.3083 70.372C39.8003 70.72 40.4123 70.894 41.1443 70.894C41.6483 70.894 42.0923 70.822 42.4763 70.678C42.8723 70.522 43.2383 70.282 43.5743 69.958L45.0683 71.578C44.1563 72.622 42.8243 73.144 41.0723 73.144C39.9803 73.144 39.0143 72.934 38.1743 72.514C37.3343 72.082 36.6863 71.488 36.2303 70.732C35.7743 69.976 35.5463 69.118 35.5463 68.158C35.5463 67.21 35.7683 66.358 36.2123 65.602C36.6683 64.834 37.2863 64.24 38.0663 63.82C38.8583 63.388 39.7403 63.172 40.7123 63.172C41.6603 63.172 42.5183 63.376 43.2863 63.784C44.0543 64.192 44.6543 64.78 45.0863 65.548C45.5303 66.304 45.7523 67.186 45.7523 68.194ZM40.7303 65.296C40.0943 65.296 39.5603 65.476 39.1283 65.836C38.6963 66.196 38.4323 66.688 38.3363 67.312H43.1063C43.0103 66.7 42.7463 66.214 42.3143 65.854C41.8823 65.482 41.3543 65.296 40.7303 65.296ZM55.7067 65.62H52.4307V73H49.6407V65.62H46.3647V63.316H55.7067V65.62Z" fill="#3588E4"/>
</g>
<defs>
<clipPath id="clip0">
<rect width="80" height="80" fill="white"/>
</clipPath>
</defs>
</svg>
