<svg width="93" height="65" viewBox="0 0 93 65" fill="none" xmlns="http://www.w3.org/2000/svg">
<g clip-path="url(#clip0)">
<path d="M75.2261 39.7016C74.2288 39.7016 73.3098 39.3703 72.5667 38.7076C68.5972 35.2189 61.5381 28.0075 56.3758 22.7256C54.5963 20.913 53.0907 19.3733 52.0934 18.3793C51.1548 17.4437 45.9142 18.5742 43.0984 19.1589C41.2799 19.5487 39.3831 19.958 37.721 20.1724C33.2235 20.7376 28.4914 17.931 26.5164 14.8905C25.0108 12.5517 25.5778 10.9145 26.0667 10.1349C28.1394 6.78257 48.4367 0.760079 50.8419 1.3253C51.585 1.50071 52.8756 2.02695 55.0656 2.90401C57.3535 3.83954 61.9683 5.69111 63.4935 5.88602C64.5886 5.1259 67.815 2.35828 70.4744 -0.0195312L73.0751 2.88452C65.6054 9.55019 64.9014 9.66713 64.2952 9.76458C62.6331 10.018 59.6413 8.96548 53.5795 6.5097C52.0152 5.86653 50.3922 5.22335 49.8838 5.08692H49.8642C47.4786 5.08692 31.9525 10.1739 29.4691 12.1229C29.5669 12.4737 29.9775 13.2144 30.9357 14.0719C32.324 15.2998 34.7879 16.6057 37.2126 16.2938C38.7183 16.0989 40.4391 15.7286 42.2772 15.3388C47.4981 14.2278 52.4063 13.1754 54.8505 15.6117C55.8674 16.6251 57.373 18.1649 59.172 19.997C64.2757 25.2204 71.2761 32.3733 75.1479 35.7646C76.8295 36.2518 83.5366 29.4302 89.6962 19.8605L92.9813 21.9655C91.1823 24.7721 81.855 38.8051 75.8518 39.6236C75.6563 39.7016 75.4412 39.7016 75.2261 39.7016Z" fill="#3588E4"/>
<path d="M43.2587 50.5175L40.4727 53.2528L46.8119 59.6676L49.598 56.9324L43.2587 50.5175Z" fill="#505050"/>
<path d="M49.0331 41.5629L46.1641 44.212L57.2604 56.1509L60.1294 53.5018L49.0331 41.5629Z" fill="#505050"/>
<path d="M56.474 34.326L53.6602 37.0332L66.8332 50.6357L69.647 47.9285L56.474 34.326Z" fill="#505050"/>
<path d="M28.6274 61.3357C27.0631 61.3357 25.5965 60.7315 24.4819 59.6206L5.04499 40.2473C3.9304 39.1363 3.32422 37.6746 3.32422 36.1154C3.32422 34.5561 3.9304 33.0944 5.04499 31.9834L8.52565 28.5141C9.6598 27.3837 11.2046 26.8575 12.8667 27.0719C14.3137 27.2473 15.7607 27.9879 16.9144 29.1378C18.1463 30.3657 18.8503 31.847 19.0067 33.2893C19.0458 33.2893 19.0849 33.2893 19.1241 33.3088C20.5711 33.4842 22.0181 34.2248 23.1718 35.3747C24.4037 36.6026 25.1077 38.0839 25.2641 39.5261C25.3032 39.5261 25.3423 39.5261 25.3814 39.5456C26.8284 39.721 28.2754 40.4617 29.4291 41.6116C30.6611 42.8395 31.365 44.3207 31.5214 45.763C31.5606 45.763 31.5997 45.763 31.6388 45.7825C33.0858 45.9579 34.5328 46.6986 35.6865 47.8485C38.2481 50.4017 38.5219 54.0074 36.3122 56.2098L32.8316 59.6791C31.6583 60.7315 30.1918 61.3357 28.6274 61.3357ZM12.1432 30.9309C11.6152 30.9309 11.361 31.1843 11.2828 31.2818L7.80214 34.751C7.43061 35.1019 7.23507 35.5891 7.23507 36.1154C7.23507 36.6416 7.43061 37.1288 7.80214 37.4992L27.2391 56.8725C27.9821 57.6131 29.2727 57.6131 29.9962 56.8725L33.4769 53.4032C34.2004 52.6821 33.692 51.3957 32.8511 50.5576C32.3232 50.0314 31.6779 49.6806 31.0912 49.6026C30.4264 49.5246 30.1135 49.8365 29.9962 49.9339C29.2336 50.6941 28.0017 50.6941 27.2391 49.9339C26.848 49.5441 26.672 49.0569 26.672 48.5501C26.672 48.0434 26.8675 47.5561 27.2391 47.1663C27.9626 46.4452 27.4542 45.1588 26.6133 44.3207C26.0854 43.7945 25.4401 43.4437 24.8534 43.3657C24.169 43.2878 23.8562 43.5996 23.7584 43.6971C22.9958 44.4572 21.7639 44.4572 21.0013 43.6971C20.6102 43.3073 20.4342 42.82 20.4342 42.3132C20.4342 41.8065 20.6297 41.3192 21.0013 40.9294C21.7248 40.2083 21.2164 38.9219 20.3755 38.0839C19.8476 37.5576 19.2023 37.2068 18.6156 37.1288C17.9508 37.0509 17.6184 37.3627 17.5206 37.4602C16.758 38.2203 15.5261 38.2203 14.7635 37.4602C14.3724 37.0704 14.1964 36.5831 14.1964 36.0764C14.1964 35.5696 14.3919 35.0824 14.7635 34.6926C15.487 33.9714 14.9785 32.6851 14.1377 31.847C13.6098 31.3207 12.9645 30.9699 12.3778 30.892C12.2996 30.9309 12.2214 30.9309 12.1432 30.9309Z" fill="#3588E4"/>
<path d="M41.7307 65C40.1272 65 38.0154 64.4348 35.8057 62.2324L31.582 58.0225L34.3587 55.2744L38.5629 59.4843C39.7753 60.6927 40.9681 61.2189 42.0827 61.0825C43.5883 60.8876 45.2309 59.4843 46.5019 57.3209C47.0299 56.4243 48.164 56.093 49.0831 56.5608C50.7452 57.4183 52.3095 57.2039 53.3459 56.8921C54.8907 56.3853 56.279 55.2744 56.9634 53.9491C57.4523 52.994 58.606 52.6042 59.5642 53.0915C61.5587 54.066 63.2012 53.4033 64.2376 52.6627C65.7237 51.5907 66.369 50.09 66.2908 49.5638C66.2126 49.018 66.369 48.4723 66.721 48.063C67.073 47.6342 67.5814 47.3808 68.1094 47.3614C70.2212 47.2444 72.0984 45.9775 72.9979 44.0675C73.8583 42.2354 73.5846 40.1889 72.294 38.4543L75.4227 36.1155C77.5736 39 78.0038 42.5862 76.5372 45.7047C75.2858 48.3943 72.861 50.3434 70.0061 51.006C69.5564 52.7407 68.2658 54.5533 66.5059 55.8201C64.3549 57.3599 61.8716 57.8471 59.4664 57.2039C58.2345 58.7437 56.4746 59.9716 54.5192 60.5952C52.6615 61.1994 50.7256 61.2189 48.9266 60.6927C47.1472 63.129 44.8789 64.6492 42.552 64.9611C42.3369 64.9806 42.0436 65 41.7307 65Z" fill="#505050"/>
<path d="M6.62889 32.8996C5.86627 31.9835 4.55614 30.2099 3.87174 28.2414L0 24.2459L2.81581 21.5367L7.00042 25.8441C7.21552 26.078 7.37195 26.3508 7.46972 26.6432C7.80214 27.7541 8.58431 29.1185 9.64024 30.4048L6.62889 32.8996Z" fill="#505050"/>
<path d="M22.3517 2.47503L19.5859 5.23096L26.6228 12.2468L29.3885 9.49084L22.3517 2.47503Z" fill="#505050"/>
<path d="M14.7312 34.7582L8.59766 41.0739L11.4076 43.7849L17.5412 37.4693L14.7312 34.7582Z" fill="#505050"/>
<path d="M14.7312 34.7582L8.59766 41.0739L11.4076 43.7849L17.5412 37.4693L14.7312 34.7582Z" fill="#3588E4"/>
<path d="M20.9695 40.9781L14.8359 47.2938L17.6459 50.0049L23.7795 43.6892L20.9695 40.9781Z" fill="#3588E4"/>
<path d="M27.2039 47.198L21.0703 53.5137L23.8803 56.2248L30.0138 49.9091L27.2039 47.198Z" fill="#3588E4"/>
</g>
<defs>
<clipPath id="clip0">
<rect width="93" height="65" fill="white"/>
</clipPath>
</defs>
</svg>
