<svg width="13" height="18" viewBox="0 0 13 18" fill="none" xmlns="http://www.w3.org/2000/svg">
<path d="M6.72957 0.00375168C3.03448 -0.119438 0 2.80709 0 6.43469C0 10.5516 3.9937 13.5394 6.23217 17.8362C6.34582 18.0544 6.66328 18.0547 6.77732 17.8365C8.80234 13.9703 12.2634 11.3777 12.9048 7.65299C13.5689 3.79863 10.6796 0.135493 6.72957 0.00375168ZM6.50443 9.80519C4.62278 9.80519 3.09736 8.2961 3.09736 6.43469C3.09736 4.57328 4.62282 3.06419 6.50443 3.06419C8.38607 3.06419 9.91153 4.57328 9.91153 6.43469C9.91153 8.2961 8.38607 9.80519 6.50443 9.80519Z" fill="#3588E4"/>
</svg>
