<svg width="83" height="96" viewBox="0 0 83 96" fill="none" xmlns="http://www.w3.org/2000/svg">
<path d="M16.0889 74.1721C15.5573 74.1721 15.0462 73.9687 14.6374 73.5821L8.89279 67.8657C8.17727 67.1333 8.0955 66.0144 8.68836 65.2211L12.5113 59.9928C11.8571 58.996 11.2642 57.9585 10.7327 56.921L4.33392 57.4906C3.35264 57.5923 2.43269 56.9413 2.18737 55.9852L0.0817054 48.1734C-0.184058 47.2172 0.286139 46.2204 1.18565 45.7932L7.012 43.0876C6.95067 41.8873 6.95067 40.7074 7.012 39.5071L1.18565 36.8015C0.286139 36.3946 -0.184058 35.3774 0.0817054 34.4213L2.18737 26.6095C2.45313 25.6533 3.3322 25.0227 4.33392 25.1041L10.7122 25.6533C11.2642 24.5752 11.8571 23.5376 12.5113 22.5408L8.83146 17.3533C8.25905 16.5396 8.36126 15.441 9.05634 14.7493L14.8009 9.03288C15.496 8.34121 16.5999 8.23949 17.4177 8.8091L22.6716 12.4709C23.6733 11.8199 24.7159 11.23 25.779 10.6807L25.2066 4.31324C25.1248 3.33676 25.7586 2.42131 26.7194 2.17719L34.5696 0.081832C35.5305 -0.182631 36.5322 0.285265 36.9615 1.18037L39.6805 6.97821C40.8866 6.91718 42.0723 6.91718 43.2785 6.97821L45.9975 1.18037C46.4063 0.285265 47.4081 -0.182631 48.3893 0.081832L56.2396 2.17719C57.2004 2.44165 57.8342 3.33676 57.7524 4.31324L57.2004 10.6603C58.2635 11.2096 59.3265 11.7996 60.3283 12.4506L65.5618 8.8091C66.3795 8.23949 67.4834 8.34121 68.1785 9.03288L73.9231 14.7493C74.6182 15.441 74.7204 16.5396 74.148 17.3533L70.4682 22.5815C71.1224 23.5783 71.7152 24.6158 72.2672 25.6737L78.6659 25.1041C79.6677 25.0227 80.5672 25.6533 80.8125 26.6095L82.9182 34.4213C83.1839 35.3774 82.7137 36.3743 81.8142 36.8015L75.9879 39.5071C76.0287 40.0971 76.0287 40.6667 76.0287 41.2363C76.0287 41.8466 76.0083 42.4569 75.9879 43.0876L81.8142 45.7932C82.7137 46.2001 83.1839 47.2172 82.9182 48.1734L80.8125 55.9852C80.5467 56.9413 79.6677 57.572 78.6659 57.4906L70.8975 56.8193L71.245 52.771L77.3167 53.2999L78.5433 48.7837L72.9827 46.1797C72.2058 45.8136 71.7356 44.9998 71.8174 44.1454C71.8992 43.1893 71.9605 42.2128 71.9605 41.2567C71.9605 40.3209 71.9196 39.3851 71.8174 38.4493C71.7356 37.5949 72.2058 36.7811 72.9827 36.415L78.5228 33.8517L77.3167 29.3355L71.2246 29.8644C70.3659 29.9458 69.5482 29.4575 69.1802 28.6845C68.3829 26.9553 67.4221 25.3075 66.3182 23.7411C65.8275 23.0494 65.8071 22.0933 66.3182 21.4016L69.8344 16.4175L66.5021 13.1015L61.514 16.5802C60.7985 17.0685 59.8581 17.0685 59.163 16.5802C57.6093 15.4817 55.9329 14.5052 54.1953 13.7118C53.4184 13.3457 52.9278 12.5319 53.0095 11.6775L53.5411 5.63555L49.0026 4.4353L46.4063 9.96867C46.0384 10.7417 45.2206 11.23 44.362 11.1282C42.4608 10.9451 40.5391 10.9451 38.6379 11.1282C37.7792 11.2096 36.9615 10.7417 36.5935 9.96867L34.0177 4.45564L29.4792 5.65589L30.0108 11.7182C30.0925 12.5726 29.6019 13.3863 28.8251 13.7525C27.0874 14.5459 25.411 15.502 23.8573 16.6006C23.1622 17.1092 22.2014 17.1092 21.5063 16.6006L16.4977 13.1015L13.1655 16.4175L16.6613 21.3813C17.1519 22.0933 17.1519 23.0291 16.6613 23.7207C15.5573 25.2668 14.5965 26.935 13.7788 28.6642C13.4108 29.4372 12.593 29.9254 11.7344 29.8441L5.66274 29.3151L4.43614 33.8314L10.0172 36.415C10.794 36.7811 11.2642 37.5949 11.1824 38.4493C10.9985 40.3412 10.9985 42.2535 11.1824 44.1454C11.2642 44.9998 10.794 45.8136 10.0172 46.1797L4.47703 48.743L5.68318 53.2592L11.7753 52.7303C12.6339 52.6489 13.4517 53.1371 13.8196 53.9102C14.6169 55.6394 15.5778 57.3075 16.6817 58.8536C17.1928 59.5656 17.1928 60.5218 16.6613 61.2338L13.0223 66.2179L16.3342 69.5135L18.7874 67.8453L21.0975 71.202L17.2541 73.8059C16.8861 74.05 16.4977 74.1721 16.0889 74.1721Z" fill="#3588E4"/>
<path d="M69.4662 96H65.3775V93.9656C65.3775 92.1551 66.3588 90.548 67.4014 88.8391C68.4031 87.1913 69.4662 85.4825 69.4662 83.794V65.485C69.4662 64.3661 68.2396 63.4507 67.4219 63.4507H61.2889V61.4164C61.2889 60.2975 60.0623 59.382 59.2445 59.382H54.0315L53.4386 58.4462C53.1115 57.9377 51.844 57.3477 51.0672 57.3477H46.9785V53.2791H51.0672C52.6413 53.2791 54.7265 54.0318 56.0963 55.3134H59.2445C61.5546 55.3134 64.0896 56.9002 65.0095 59.382H67.4219C70.3248 59.382 73.5549 61.8843 73.5549 65.485V83.794C73.5549 86.6217 72.0829 89.0426 70.8972 90.9548C70.2226 92.0534 69.4662 93.2943 69.4662 93.9656V96Z" fill="white"/>
<path d="M38.8003 96.0001H34.7116V92.1145C34.3437 91.2804 32.3402 89.1647 31.1136 87.8831C29.703 86.3777 28.4764 85.0961 27.8018 84.0586C26.8818 82.6346 22.3843 69.9607 20.5035 64.59L20.3809 64.2646V63.9187C20.3809 62.1285 21.8732 60.44 24.1015 59.7077C26.473 58.9346 29.887 59.3211 32.3607 62.7185L36.4289 68.9842L36.7355 68.6791V41.0732C36.7355 37.7166 39.4954 34.9702 42.8685 34.9702C46.2417 34.9702 49.0015 37.7166 49.0015 41.0732V65.4852H44.9129V41.0732C44.9129 39.9543 43.9929 39.0389 42.8685 39.0389C41.7442 39.0389 40.8242 39.9543 40.8242 41.0732V70.4286L35.6725 75.3517L28.9875 65.0376C28.2107 63.9797 27.1885 63.3695 26.0846 63.4712C25.4099 63.5119 24.8784 63.7763 24.6126 64.0001C27.0863 71.0185 30.6434 80.824 31.2567 81.9225C31.686 82.5939 32.8922 83.8755 34.0779 85.1164C37.0831 88.29 38.7799 90.1819 38.7799 91.9518V96.0001H38.8003Z" fill="white"/>
<path d="M57.201 57.3479H53.1123V65.4852H57.201V57.3479Z" fill="white"/>
<path d="M65.3777 61.4165H61.2891V67.5195H65.3777V61.4165Z" fill="white"/>
<path d="M53.153 51.0006L50.2296 48.1729C52.0899 46.2606 53.1121 43.7584 53.1121 41.0934C53.1121 35.4787 48.5328 30.9218 42.8904 30.9218C37.2481 30.9218 32.6687 35.4787 32.6687 41.0934C32.6687 43.5956 33.5887 46.0165 35.2651 47.8677L32.219 50.5734C29.868 47.9694 28.5801 44.5925 28.5801 41.0731C28.5801 33.2206 34.9993 26.8328 42.8904 26.8328C50.7816 26.8328 57.2008 33.2206 57.2008 41.0731C57.2008 44.7959 55.7697 48.3153 53.153 51.0006Z" fill="#3588E4"/>
</svg>
