<svg width="56" height="50" viewBox="0 0 56 50" fill="none" xmlns="http://www.w3.org/2000/svg">
<g clip-path="url(#clip0)">
<path d="M32.869 1.38867H23.1298V4.16645H18.2603C5.11245 10.2776 3.85448 25.2313 4.86897 31.9442H4.26028H1.2168V37.4998H4.86897V38.8887C8.27767 47.222 21.7096 48.8424 27.9994 48.6109C47.4777 48.0553 51.5356 40.972 51.1298 37.4998H54.782L54.1733 31.9442H51.1298V30.5553C52.5907 16.1109 42.811 6.94423 37.7385 4.16645H32.869V1.38867Z" fill="white"/>
<path d="M2.43478 38.8888H0V31.9444C0 31.1805 0.547826 30.5555 1.21739 30.5555H3.65217V26.3888C3.65217 15.9444 8.93565 7.15272 17.7861 2.88883C18.1635 2.70828 18.5896 2.74995 18.9304 3.01383C19.2713 3.26383 19.4783 3.69439 19.4783 4.16661V13.8888H17.0435V6.34717C10.1409 10.4166 6.08696 17.7777 6.08696 26.3888V31.9444C6.08696 32.7083 5.53913 33.3333 4.86957 33.3333H2.43478V38.8888Z" fill="#505050"/>
<path d="M28.0002 50.0002C15.2541 50.0002 3.65234 44.7086 3.65234 38.8891V36.1113H6.08713V38.8891C6.08713 41.7502 14.621 47.2224 28.0002 47.2224C41.3793 47.2224 49.9132 41.7502 49.9132 38.8891V36.1113H52.348V38.8891C52.348 44.7086 40.7463 50.0002 28.0002 50.0002Z" fill="#505050"/>
<path d="M28.0008 40.2779C19.8199 40.2779 12.9781 39.2224 9.25293 37.3891L10.2147 34.8335C13.6112 36.5002 20.246 37.5002 28.0008 37.5002C35.7555 37.5002 42.3903 36.5002 45.7747 34.8335L46.7364 37.3891C43.0234 39.2224 36.1816 40.2779 28.0008 40.2779Z" fill="#3588E4"/>
<path d="M34.087 16.6667H31.6522V2.77778H24.3479V16.6667H21.9131V1.38889C21.9131 0.625 22.4609 0 23.1305 0H32.8696C33.5392 0 34.087 0.625 34.087 1.38889V16.6667Z" fill="#505050"/>
<path d="M56.0007 38.8888H53.5659V33.3333H51.1312C50.4616 33.3333 49.9138 32.7083 49.9138 31.9444V26.3888C49.9138 17.7777 45.8598 10.4166 38.9572 6.34717V13.8888H36.5225V4.16661C36.5225 3.69439 36.7294 3.26383 37.0703 3.01383C37.4112 2.74995 37.8372 2.70828 38.2146 2.88883C47.0651 7.15272 52.3485 15.9444 52.3485 26.3888V30.5555H54.7833C55.4529 30.5555 56.0007 31.1805 56.0007 31.9444V38.8888Z" fill="#505050"/>
</g>
<defs>
<clipPath id="clip0">
<rect width="56" height="50" fill="white"/>
</clipPath>
</defs>
</svg>
