<svg width="34" height="39" viewBox="0 0 34 39" fill="none" xmlns="http://www.w3.org/2000/svg">
<g opacity="0.4">
<path d="M15.1102 39.0002H19.6435C20.8902 39.0002 21.9102 37.8556 21.9102 36.4567V35.6089C21.9102 34.21 20.8902 33.0654 19.6435 33.0654H15.1102C13.8635 33.0654 12.8435 34.21 12.8435 35.6089V36.4567C12.8435 37.8556 13.8635 39.0002 15.1102 39.0002ZM19.6435 34.7611C20.059 34.7611 20.399 35.1426 20.399 35.6089V36.4567C20.399 36.923 20.059 37.3046 19.6435 37.3046H15.1102C14.6946 37.3046 14.3546 36.923 14.3546 36.4567V35.6089C14.3546 35.1426 14.6946 34.7611 15.1102 34.7611H19.6435Z" fill="white"/>
<path d="M4.53376 15.2609H6.04488V12.6326C6.04488 6.60457 11.1298 1.69565 17.3782 1.69565C23.6267 1.69565 28.7115 6.60457 28.7115 12.6326V15.2609H30.2227V12.6326C30.2227 5.67196 24.4578 0 17.3782 0C10.2987 0 4.53376 5.67196 4.53376 12.6326V15.2609Z" fill="white"/>
<path d="M13.3969 36.6851L13.8125 35.0572C9.99695 33.8364 7.11828 30.7248 6.29472 26.9351L4.82895 27.3335C5.77339 31.7083 9.06006 35.2946 13.3969 36.6851Z" fill="white"/>
<path d="M4.25456 28.5972C4.91189 28.5972 5.56167 28.3089 6.05278 27.7579C6.52878 27.2322 6.80078 26.4946 6.80078 25.74V16.6089C6.80078 15.8459 6.53634 15.1252 6.05278 14.5911C5.22923 13.667 3.95234 13.4889 2.94745 14.1587L1.23234 15.3118C0.469231 15.8289 0.000785828 16.7615 0.000785828 17.762V24.587C0.000785828 25.5874 0.476787 26.52 1.23234 27.0372L2.94745 28.1902C3.35545 28.4615 3.80878 28.5972 4.25456 28.5972ZM4.25456 15.4559C4.51901 15.4559 4.78345 15.5746 4.98745 15.795C5.18389 16.0155 5.28967 16.3037 5.28967 16.6174V25.7485C5.28967 26.0537 5.17634 26.3505 4.98745 26.5709C4.64745 26.9524 4.13367 27.0202 3.72567 26.7489L2.01056 25.5959C1.70078 25.3755 1.5119 24.9939 1.5119 24.587V17.762C1.5119 17.355 1.70078 16.9735 2.01056 16.77L3.72567 15.617C3.89189 15.5068 4.07323 15.4559 4.25456 15.4559Z" fill="white"/>
<path d="M29.7462 28.597C30.192 28.597 30.6453 28.4613 31.0533 28.19L32.7684 27.037C33.524 26.5198 34 25.5872 34 24.5868V17.7618C34 16.7613 33.524 15.8287 32.7684 15.3115L31.0533 14.1585C30.0484 13.4802 28.7716 13.6583 27.948 14.5909C27.4644 15.1335 27.2 15.8457 27.2 16.6087V25.7398C27.2 26.4944 27.472 27.232 27.948 27.7576C28.4391 28.3087 29.0889 28.597 29.7462 28.597ZM29.7462 15.4557C29.9276 15.4557 30.1164 15.5065 30.2751 15.6252L31.9902 16.7783C32.3 16.9818 32.4889 17.3633 32.4889 17.7618V24.5868C32.4889 24.9937 32.3 25.3752 31.9902 25.5787L30.2751 26.7318C29.8671 27.0031 29.3533 26.9352 29.0133 26.5537C28.8244 26.3418 28.7111 26.045 28.7111 25.7398V16.6087C28.7111 16.295 28.8169 16.0068 29.0133 15.7863C29.2098 15.5659 29.4742 15.4557 29.7462 15.4557Z" fill="white"/>
</g>
</svg>
