<svg width="70" height="80" viewBox="0 0 70 80" fill="none" xmlns="http://www.w3.org/2000/svg">
<path d="M40.7469 64.4496C39.9167 64.4496 39.0864 64.2513 38.3376 63.8547C37.7841 63.5572 37.1167 63.5572 36.5632 63.8547C35.2771 64.5322 33.7632 64.6479 32.3957 64.1356C31.0283 63.6233 29.9213 62.5492 29.3515 61.1776C29.1074 60.5826 28.6027 60.1365 27.9841 59.9877C26.5841 59.6572 25.3469 58.7483 24.6306 57.4758C23.898 56.1869 23.719 54.6335 24.1585 53.2123C24.3539 52.5843 24.2236 51.9068 23.8492 51.3779C22.9701 50.2046 22.612 48.6843 22.8562 47.23C23.1167 45.7758 23.9469 44.4868 25.1678 43.6936C25.705 43.3465 26.0306 42.7351 26.0632 42.0906C26.1283 40.6033 26.812 39.1986 27.919 38.2401C29.026 37.2982 30.4748 36.8685 31.9074 37.0668C32.526 37.1495 33.1446 36.9181 33.5678 36.4389C34.5446 35.3482 35.9446 34.7202 37.3934 34.7202C38.8422 34.7202 40.2422 35.3482 41.219 36.4389C41.6422 36.9181 42.2771 37.1495 42.8957 37.0668C44.3283 36.8685 45.7771 37.2982 46.8841 38.2401C48.0073 39.1986 48.6911 40.6033 48.7562 42.0906C48.7887 42.7516 49.1143 43.3465 49.6515 43.6936C50.8725 44.4868 51.719 45.7758 51.9632 47.23C52.2236 48.6843 51.8655 50.2046 50.9864 51.3779C50.5957 51.8902 50.4818 52.5843 50.6771 53.2123C51.1166 54.6335 50.9539 56.1869 50.205 57.4758C49.4887 58.7483 48.2515 59.6572 46.8515 59.9877C46.2329 60.1199 45.7283 60.5661 45.4841 61.161C44.9306 62.5327 43.8236 63.6233 42.4562 64.1191C41.9353 64.3505 41.3329 64.4496 40.7469 64.4496ZM37.4585 60.3182C38.2887 60.3182 39.1027 60.5165 39.8515 60.9132C40.3399 61.1776 40.8771 61.2106 41.3818 61.0123C41.9027 60.814 42.2934 60.4339 42.505 59.9051C43.1562 58.3021 44.5236 57.1288 46.1678 56.7487C46.705 56.633 47.1446 56.286 47.4213 55.8068C47.698 55.311 47.7632 54.7326 47.6004 54.1873C47.0957 52.5512 47.405 50.75 48.4306 49.3783C48.7725 48.9322 48.9027 48.3703 48.805 47.7919C48.7073 47.23 48.398 46.7508 47.926 46.4533C46.5097 45.5279 45.6143 43.9415 45.5329 42.2063C45.5004 41.6279 45.2562 41.1156 44.8329 40.752C44.4097 40.3885 43.8887 40.2397 43.3515 40.3058C41.6748 40.5372 39.9818 39.9092 38.8422 38.6202C38.4841 38.2402 37.9794 38.0088 37.426 38.0088C36.8887 38.0088 36.3841 38.2401 36.0097 38.6533C34.8701 39.9258 33.1934 40.5702 31.5004 40.3389C30.9632 40.2728 30.4422 40.4215 30.019 40.7686C29.5957 41.1321 29.3353 41.6444 29.319 42.2228C29.2539 43.9415 28.3585 45.5279 26.9422 46.4533C26.4864 46.7508 26.1771 47.23 26.0794 47.7919C25.9818 48.3538 26.112 48.9156 26.4539 49.3783C27.4794 50.75 27.7887 52.5512 27.2841 54.1873C27.1213 54.7326 27.1864 55.311 27.4632 55.8068C27.7399 56.286 28.1794 56.633 28.7167 56.7487C30.3608 57.1288 31.7283 58.3021 32.3794 59.9051C32.5911 60.4339 32.998 60.8305 33.519 61.0123C34.0236 61.2106 34.5771 61.161 35.0492 60.9132C35.8143 60.5165 36.6283 60.3182 37.4585 60.3182Z" fill="#3588E4"/>
<path d="M37.4569 56.1867C33.8593 56.1867 30.9453 53.2286 30.9453 49.5765C30.9453 45.9244 33.8593 42.9663 37.4569 42.9663C41.0546 42.9663 43.9686 45.9244 43.9686 49.5765C43.9686 53.2286 41.0383 56.1867 37.4569 56.1867ZM37.4569 46.2714C35.6662 46.2714 34.2011 47.7587 34.2011 49.5765C34.2011 51.3943 35.6662 52.8816 37.4569 52.8816C39.2476 52.8816 40.7128 51.3943 40.7128 49.5765C40.7128 47.7587 39.2476 46.2714 37.4569 46.2714Z" fill="#3588E4"/>
<path d="M43.9529 79.9999L37.4413 73.3897L30.9297 79.9999V62.7969H34.1855V72.0346L37.4413 68.7295L40.6971 72.0346V62.7969H43.9529V79.9999Z" fill="#3588E4"/>
<path d="M50.4645 19.8306H24.418V23.1357H50.4645V19.8306Z" fill="#505050"/>
<path d="M43.9529 26.4409H30.9297V29.746H43.9529V26.4409Z" fill="#505050"/>
<path d="M29.3023 71.0598H6.51163C2.91395 71.0598 0 68.1017 0 64.4496V59.4919H11.3953V62.797H3.25581V64.4496C3.25581 66.2674 4.72093 67.7547 6.51163 67.7547H29.3023V71.0598Z" fill="#505050"/>
<path d="M55.3495 71.0597H45.582V67.7546H55.3495C57.1402 67.7546 58.6053 66.2673 58.6053 64.4495V9.91528H61.8611V64.4495C61.8611 68.1016 58.9471 71.0597 55.3495 71.0597Z" fill="#505050"/>
<path d="M6.51172 71.0597V67.7546C8.30242 67.7546 9.76753 66.2673 9.76753 64.4495V6.6102C9.76753 2.95807 12.6815 0 16.2792 0H63.4885C67.0861 0 70.0001 2.95807 70.0001 6.6102V11.5679H19.535V6.6102C19.535 4.7924 18.0699 3.3051 16.2792 3.3051C14.4885 3.3051 13.0233 4.7924 13.0233 6.6102V64.4495C13.0233 68.1016 10.1094 71.0597 6.51172 71.0597ZM22.7908 8.26276H66.7443V6.6102C66.7443 4.7924 65.2792 3.3051 63.4885 3.3051H21.9117C22.4652 4.28011 22.7908 5.40384 22.7908 6.6102V8.26276Z" fill="#505050"/>
</svg>
