<svg width="62" height="60" viewBox="0 0 62 60" fill="none" xmlns="http://www.w3.org/2000/svg">
<circle cx="30" cy="30" r="30" fill="#F5F5F5"/>
<path d="M28.1714 43.3295C28.5488 43.8464 29.0464 44.2675 29.6229 44.558C30.1993 44.8485 30.8381 45 31.4861 45C32.1342 45 32.7729 44.8485 33.3494 44.558C33.9258 44.2675 34.4234 43.8464 34.8009 43.3295L61.806 6.59759C62.2933 5.93088 61.806 5 60.9725 5H54.9586C53.6506 5 52.4068 5.61639 51.6374 6.67306L31.4925 34.0962L22.3626 21.6678C21.5932 20.6237 20.3622 19.9947 19.0414 19.9947H13.0275C12.194 19.9947 11.7067 20.9256 12.194 21.5923L28.1714 43.3295Z" fill="#3588E4"/>
</svg>
