<svg width="20" height="58" viewBox="0 0 20 58" fill="none" xmlns="http://www.w3.org/2000/svg">
<path d="M0.516934 30.5218L19.458 57.1084C19.5075 57.1784 19.567 57.2219 19.6296 57.2339C19.6922 57.2459 19.7555 57.2259 19.8121 57.1763C19.8687 57.1266 19.9163 57.0492 19.9496 56.9531C19.9828 56.8569 20.0003 56.7458 20 56.6326L20 50.7958C20 50.4258 19.9034 50.071 19.7437 49.8444L4.61775 28.619L19.7437 7.39351C19.9076 7.16699 20 6.81209 20 6.4421L20 0.605289C20 0.0993821 19.6765 -0.179996 19.458 0.129589L0.516934 26.7162C0.355947 26.9418 0.225716 27.2305 0.136142 27.5602C0.0465674 27.89 8.37833e-06 28.252 8.3447e-06 28.619C8.31107e-06 28.9859 0.0465673 29.348 0.136141 29.6777C0.225716 30.0074 0.355947 30.2961 0.516934 30.5218Z" fill="black"/>
</svg>
