<svg width="6" height="11" viewBox="0 0 6 11" fill="none" xmlns="http://www.w3.org/2000/svg">
<path d="M0.155078 5.86575L5.83739 10.9752C5.85224 10.9887 5.87009 10.997 5.88888 10.9993C5.90767 11.0017 5.92664 10.9978 5.94362 10.9883C5.96061 10.9787 5.9749 10.9639 5.98487 10.9454C5.99485 10.9269 6.00009 10.9056 6 10.8838L6 9.76206C6 9.69096 5.97101 9.62275 5.92311 9.57922L1.38532 5.50006L5.92311 1.4209C5.97227 1.37737 6 1.30916 6 1.23806L6 0.116326C6 0.0191002 5.90294 -0.0345926 5.8374 0.0249042L0.155078 5.13437C0.106782 5.17774 0.0677124 5.23322 0.0408402 5.29659C0.0139676 5.35996 5.60759e-08 5.42954 4.93299e-08 5.50006C4.25838e-08 5.57058 0.0139675 5.64016 0.0408402 5.70353C0.0677123 5.7669 0.106782 5.82238 0.155078 5.86575Z" fill="black"/>
</svg>
