<svg width="80" height="80" viewBox="0 0 80 80" fill="none" xmlns="http://www.w3.org/2000/svg">
<path d="M20.0013 45.2174H16.668V60.8696H20.0013V45.2174Z" fill="#3588E4"/>
<path d="M40.0013 45.2174H36.668V60.8696H40.0013V45.2174Z" fill="#3588E4"/>
<path d="M28.3346 57.3913C21.9013 57.3913 16.668 51.9304 16.668 45.2174C16.668 38.5043 21.9013 33.0435 28.3346 33.0435C34.768 33.0435 40.0013 38.5043 40.0013 45.2174C40.0013 51.9304 34.768 57.3913 28.3346 57.3913ZM28.3346 36.5217C23.7346 36.5217 20.0013 40.4174 20.0013 45.2174C20.0013 50.0174 23.7346 53.913 28.3346 53.913C32.9346 53.913 36.668 50.0174 36.668 45.2174C36.668 40.4174 32.9346 36.5217 28.3346 36.5217Z" fill="#3588E4"/>
<path d="M66.6654 27.8261H53.332V17.3914H56.6654V24.3479H63.332V17.3914H66.6654V27.8261Z" fill="#3588E4"/>
<path d="M60 20.8696C54.4833 20.8696 50 16.1913 50 10.4348C50 4.67826 54.4833 0 60 0C65.5167 0 70 4.67826 70 10.4348C70 16.1913 65.5167 20.8696 60 20.8696ZM60 3.47826C56.3167 3.47826 53.3333 6.5913 53.3333 10.4348C53.3333 14.2783 56.3167 17.3913 60 17.3913C63.6833 17.3913 66.6667 14.2783 66.6667 10.4348C66.6667 6.5913 63.6833 3.47826 60 3.47826Z" fill="#3588E4"/>
<path d="M68 39.3043L65.3333 37.2173L69.4667 31.4608L65.9833 27.826H65V24.3478H67.35L73.8667 31.1478L68 39.3043Z" fill="#3588E4"/>
<path d="M51.9995 39.3043L46.1328 31.1478L52.6495 24.3478H54.9995V27.826H54.0161L50.5328 31.4608L54.6661 37.2173L51.9995 39.3043Z" fill="#3588E4"/>
<path d="M16.668 26.087C11.1513 26.087 6.66797 21.4087 6.66797 15.6522C6.66797 9.89567 11.1513 5.21741 16.668 5.21741C22.1846 5.21741 26.668 9.89567 26.668 15.6522C26.668 21.4087 22.1846 26.087 16.668 26.087ZM16.668 8.69567C12.9846 8.69567 10.0013 11.8087 10.0013 15.6522C10.0013 19.4957 12.9846 22.6087 16.668 22.6087C20.3513 22.6087 23.3346 19.4957 23.3346 15.6522C23.3346 11.8087 20.3513 8.69567 16.668 8.69567Z" fill="#3588E4"/>
<path d="M48.1246 3.4939L21.4648 6.97021L21.8782 10.4217L48.538 6.94538L48.1246 3.4939Z" fill="#3588E4"/>
<path d="M48.0067 13.9432L23.0039 19.1665L23.6582 22.5769L48.661 17.3537L48.0067 13.9432Z" fill="#3588E4"/>
<path d="M14.7151 26.8561L11.9414 28.7855L18.6071 39.2193L21.3807 37.2899L14.7151 26.8561Z" fill="#3588E4"/>
<path d="M24.6382 25.0034L22.0352 27.1763L28.6986 35.868L31.3016 33.6952L24.6382 25.0034Z" fill="#3588E4"/>
<path d="M71.6653 69.5652H68.332V73.0434H71.6653V69.5652Z" fill="#505050"/>
<path d="M11.6654 69.5652H8.33203V73.0434H11.6654V69.5652Z" fill="#505050"/>
<path d="M21.6654 69.5652H18.332V73.0434H21.6654V69.5652Z" fill="#505050"/>
<path d="M31.6654 69.5652H28.332V73.0434H31.6654V69.5652Z" fill="#505050"/>
<path d="M41.6654 69.5652H38.332V73.0434H41.6654V69.5652Z" fill="#505050"/>
<path d="M51.6654 69.5652H48.332V73.0434H51.6654V69.5652Z" fill="#505050"/>
<path d="M61.6654 69.5652H58.332V73.0434H61.6654V69.5652Z" fill="#505050"/>
<path d="M71.6667 79.9999H8.33333C3.73333 79.9999 0 76.1043 0 71.3043C0 66.5043 3.73333 62.6086 8.33333 62.6086H71.6667C76.2667 62.6086 80 66.5043 80 71.3043C80 76.1043 76.2667 79.9999 71.6667 79.9999ZM8.33333 66.0869C5.58333 66.0869 3.33333 68.4347 3.33333 71.3043C3.33333 74.1739 5.58333 76.5217 8.33333 76.5217H71.6667C74.4167 76.5217 76.6667 74.1739 76.6667 71.3043C76.6667 68.4347 74.4167 66.0869 71.6667 66.0869H8.33333Z" fill="#505050"/>
</svg>
