<svg width="19" height="13" viewBox="0 0 19 13" fill="none" xmlns="http://www.w3.org/2000/svg">
<path d="M0.397875 1.05473C3.00555 3.06937 7.58121 6.61374 8.92606 7.71888C9.10659 7.86804 9.30023 7.94387 9.50125 7.94387C9.70186 7.94387 9.89517 7.86875 10.0753 7.7203C11.4213 6.61408 15.997 3.06937 18.6047 1.05473C18.767 0.929543 18.7918 0.709496 18.6603 0.556446C18.3565 0.202781 17.9034 0 17.4179 0H1.5846C1.09909 0 0.646026 0.202781 0.342211 0.55648C0.21077 0.709497 0.235522 0.929543 0.397875 1.05473Z" fill="#3588E4"/>
<path d="M18.7704 2.14695C18.6301 2.08736 18.465 2.10815 18.3483 2.19915C15.4564 4.43556 11.7656 7.30219 10.6044 8.25675C9.95262 8.79346 9.04808 8.79346 8.39481 8.25604C7.15706 7.23868 3.01239 4.02438 0.651715 2.19911C0.534189 2.10812 0.368756 2.08804 0.229596 2.14691C0.0896934 2.20619 0 2.33385 0 2.47454V11.5557C0 12.3523 0.710088 13.0001 1.58335 13.0001H17.4167C18.2899 13.0001 19 12.3523 19 11.5557V2.47454C19 2.33385 18.9103 2.20585 18.7704 2.14695Z" fill="#3588E4"/>
</svg>
