<svg width="55" height="55" viewBox="0 0 55 55" fill="none" xmlns="http://www.w3.org/2000/svg">
<path d="M39.1875 7.5625V4.125L39.875 2.75L41.9375 0.6875L45.375 2.0625L46.0625 5.5L44.6875 8.25L39.875 8.9375L45.375 15.125L46.75 14.4375L48.8125 12.375H50.875L53.625 15.125L52.9375 17.1875L51.5625 19.25H48.125L45.375 16.5V26.125H46.0625L48.8125 23.375L52.9375 24.0625L53.625 27.5L52.9375 28.875L51.5625 30.25H48.8125L45.375 27.5V38.5L46.0625 37.8125L49.5 35.75L52.25 36.4375L53.625 39.875L51.5625 41.9375L48.125 42.625L46.0625 39.875L39.875 46.0625L40.5625 46.75L42.625 46.0625L45.375 47.4375L46.75 50.875L44.6875 53.625H41.9375C40.7917 52.7083 38.5 50.7375 38.5 50.1875C38.5 49.6375 38.9583 48.125 39.1875 47.4375L37.8125 46.0625H30.25V46.75V50.875H20.625V46.0625L15.8125 44L11.6875 47.4375L5.5 41.25L8.9375 36.4375L6.1875 31.625H1.375V22H6.1875L8.25 16.5L4.8125 13.0625L11.6875 6.1875L15.8125 10.3125L16.5 9.625L20.625 7.5625V2.75H22H30.25V7.5625H39.1875Z" fill="white"/>
<path d="M30.555 8.55545V2.44434H20.7772V7.96878C18.9928 8.43322 17.3061 9.12989 15.7417 10.0466L11.8306 6.13545L4.91279 13.0532L8.8239 16.9643C7.91946 18.5166 7.21057 20.2154 6.74612 21.9999H1.22168V31.7777H6.74612C7.21057 33.5621 7.90723 35.2488 8.8239 36.8132L4.91279 40.7243L11.8306 47.6421L15.7417 43.731C17.2939 44.6477 18.9806 45.3566 20.7772 45.8088V51.3332H30.555V45.2221" stroke="#3588E4" stroke-width="2" stroke-miterlimit="10" stroke-linejoin="round"/>
<path d="M32.999 13.4446H34.2212L40.3324 7.3335" stroke="#505050" stroke-width="2" stroke-miterlimit="10" stroke-linejoin="round"/>
<path d="M40.3328 47.6666L32.9995 40.3332H25.6661C18.235 40.3332 12.2217 34.3199 12.2217 26.8888C12.2217 19.4577 18.235 13.4443 25.6661 13.4443" stroke="#505050" stroke-width="2" stroke-miterlimit="10" stroke-linejoin="round"/>
<path d="M26.889 32.9998H25.6668C22.2934 32.9998 19.5557 30.262 19.5557 26.8887C19.5557 23.5153 22.2934 20.7776 25.6668 20.7776H35.4446L40.3334 15.8887H46.4446" stroke="#505050" stroke-width="2" stroke-miterlimit="10" stroke-linejoin="round"/>
<path d="M46.4439 39.1111H41.555L35.4439 33H34.2217" stroke="#505050" stroke-width="2" stroke-miterlimit="10" stroke-linejoin="round"/>
<path d="M42.777 8.5555C44.8021 8.5555 46.4437 6.91388 46.4437 4.88883C46.4437 2.86379 44.8021 1.22217 42.777 1.22217C40.752 1.22217 39.1104 2.86379 39.1104 4.88883C39.1104 6.91388 40.752 8.5555 42.777 8.5555Z" stroke="#505050" stroke-width="2" stroke-miterlimit="10" stroke-linejoin="round"/>
<path d="M50.11 19.5555C52.1351 19.5555 53.7767 17.9139 53.7767 15.8888C53.7767 13.8638 52.1351 12.2222 50.11 12.2222C48.085 12.2222 46.4434 13.8638 46.4434 15.8888C46.4434 17.9139 48.085 19.5555 50.11 19.5555Z" stroke="#505050" stroke-width="2" stroke-miterlimit="10" stroke-linejoin="round"/>
<path d="M50.11 30.5555C52.1351 30.5555 53.7767 28.9139 53.7767 26.8888C53.7767 24.8638 52.1351 23.2222 50.11 23.2222C48.085 23.2222 46.4434 24.8638 46.4434 26.8888C46.4434 28.9139 48.085 30.5555 50.11 30.5555Z" stroke="#505050" stroke-width="2" stroke-miterlimit="10" stroke-linejoin="round"/>
<path d="M50.11 42.7777C52.1351 42.7777 53.7767 41.136 53.7767 39.111C53.7767 37.086 52.1351 35.4443 50.11 35.4443C48.085 35.4443 46.4434 37.086 46.4434 39.111C46.4434 41.136 48.085 42.7777 50.11 42.7777Z" stroke="#505050" stroke-width="2" stroke-miterlimit="10" stroke-linejoin="round"/>
<path d="M42.777 53.7777C44.8021 53.7777 46.4437 52.136 46.4437 50.111C46.4437 48.086 44.8021 46.4443 42.777 46.4443C40.752 46.4443 39.1104 48.086 39.1104 50.111C39.1104 52.136 40.752 53.7777 42.777 53.7777Z" stroke="#505050" stroke-width="2" stroke-miterlimit="10" stroke-linejoin="round"/>
<path d="M34.2217 26.8887H45.2217" stroke="#505050" stroke-width="2" stroke-miterlimit="10" stroke-linejoin="round"/>
<path d="M24.4443 26.8887H26.8888" stroke="#505050" stroke-width="2" stroke-miterlimit="10" stroke-linejoin="round"/>
<path d="M29.333 26.8887H31.7775" stroke="#505050" stroke-width="2" stroke-miterlimit="10" stroke-linejoin="round"/>
<path d="M29.333 33H31.7775" stroke="#505050" stroke-width="2" stroke-miterlimit="10" stroke-linejoin="round"/>
<path d="M28.1104 13.4443H30.5548" stroke="#505050" stroke-width="2" stroke-miterlimit="10" stroke-linejoin="round"/>
</svg>
